<?xml version="1.0" encoding="UTF-8"?>
<svg id="Layer_3" data-name="Layer 3" xmlns="http://www.w3.org/2000/svg" width="117" height="117" viewBox="0 0 117 117">
  <defs>
    <style>
      .cls-1 {
        fill: #319b72;
        isolation: isolate;
        stroke: #0d261c;
      }

      .cls-1, .cls-2, .cls-3 {
        stroke-miterlimit: 10;
        stroke-width: 4px;
      }

      .cls-2 {
        fill: #267355;
      }

      .cls-2, .cls-3 {
        stroke: #bad3b6;
      }

      .cls-3 {
        fill: #1a4c39;
      }
    </style>
  </defs>
  <rect class="cls-1" x="3.71" y="3.71" width="109.59" height="109.59" rx="17.02" ry="17.02"/>
  <path class="cls-2" d="m43.27,37.24h18.73c1.15,0,2.16.79,2.43,1.91l7.81,31.94c.66,2.68,4.53,2.49,4.91-.24l4.58-32.45c.18-1.26,1.27-2.18,2.53-2.15l20.2.4c1.69.04,2.87,1.71,2.33,3.31l-21.56,63.74c-.35,1.04-1.34,1.73-2.44,1.7l-16.6-.42c-1.03-.03-1.93-.68-2.29-1.64l-22.98-62.73c-.6-1.63.61-3.37,2.35-3.37Z"/>
  <path class="cls-3" d="m53.81,12.52l.5,9c.09,1.6-1.17,2.95-2.77,2.95-7.16,0-19.45,1.41-18.13,24.94.42,7.46,14.12,14.57,19.43,9.59,1.74-1.64,4.6-.44,4.68,1.94l.64,18.24c.05,1.34-.86,2.52-2.17,2.82-9.62,2.21-46.9,8.51-45.87-26.67C11.28,16.23,23.02,12.16,50.8,9.9c1.56-.13,2.92,1.06,3.01,2.63h0Z"/>
</svg>