<?xml version="1.0" encoding="UTF-8"?>
<svg id="Layer_17" data-name="Layer 17" xmlns="http://www.w3.org/2000/svg" width="180" height="195" viewBox="0 0 180 195">
  <defs>
    <style>
      .cls-1 {
        fill: #267355;
        stroke: #bad3b6;
        stroke-miterlimit: 10;
        stroke-width: 4px;
      }
    </style>
  </defs>
  <path class="cls-1" d="m10.92,8.89l116.96-4.47c4.16-.16,7.71,3.77,7.94,8.81l1.57,33.16c.25,5.28-3.23,9.64-7.6,9.52l-33.09-.88c-4.33-.12-7.8,4.18-7.6,9.42l3.27,86.55c.19,5.02-2.99,9.22-7.14,9.41l-30.64,1.45c-4.28.2-7.91-3.93-8.01-9.12l-1.67-87.57c-.1-5.19-3.73-9.32-8.01-9.12l-21.28,1.01c-3.89.18-7.31-3.23-7.92-7.89l-3.89-29.85c-.7-5.4,2.61-10.26,7.11-10.43Z"/>
  <g>
    <path class="cls-1" d="m162.03,148.5l1.23,37.02c.07,2.2-1.64,4.04-3.83,4.13l-21.89.92c-2.26.1-4.15-1.7-4.17-3.97l-.32-36.86"/>
    <path class="cls-1" d="m161.39,132l1.76-65.86c.07-2.55-1.99-4.64-4.53-4.62l-22.23.2c-1.34.01-2.6.62-3.44,1.65l-55.91,68.5c-.72.89-1.08,2.02-1,3.16l.71,10c.17,2.37,2.15,4.2,4.52,4.18l90.42-.8c2.43-.02,4.4-1.96,4.46-4.39l.15-6.48c.06-2.55-2.01-4.64-4.56-4.6l-71.31,1.04c-3.8.06-5.95-4.33-3.58-7.3l28.58-35.87c2.65-3.33,8.02-1.45,8.01,2.81l-.03,39.63"/>
  </g>
</svg>