<?xml version="1.0" encoding="utf-8"?>
<!-- Generator: Adobe Illustrator 27.5.0, SVG Export Plug-In . SVG Version: 6.00 Build 0)  -->
<svg version="1.1" id="Layer_11" xmlns="http://www.w3.org/2000/svg" xmlns:xlink="http://www.w3.org/1999/xlink" x="0px" y="0px"
	 viewBox="0 0 1920 1080" style="enable-background:new 0 0 1920 1080;" xml:space="preserve">
<style type="text/css">
	.st0{fill:#DDEAD1;}
	.st1{fill:#0D261C;}
	.st2{fill:#1A4C39;}
	.st3{fill:#267355;}
	.st4{fill:#319B72;}
	.st5{opacity:0.3;fill:#319B72;enable-background:new    ;}
	.st6{fill:#167049;}
</style>
<g>
	<rect x="-6" y="-6" class="st0" width="1932" height="1090"/>
	<g>
		<path class="st1" d="M261.6,309.4l-13,18.6c-3.5,5-4.3,11.3-2.1,16.9l8,21.3c5.3,14.2-8,28.4-22.5,24l-21.8-6.6
			c-5.8-1.8-12-0.6-16.8,3.2l-17.8,14.1c-11.9,9.5-29.5,1.2-29.8-14l-0.4-22.7c-0.1-6-3.2-11.6-8.2-15l-19-12.5
			c-12.7-8.4-10.2-27.7,4.1-32.6l21.5-7.4c5.7-2,10.1-6.6,11.7-12.4l6.1-21.9c4.1-14.6,23.2-18.3,32.3-6.1l13.7,18.1
			c3.6,4.8,9.4,7.5,15.4,7.3l22.7-1C261,279.9,270.3,297,261.6,309.4L261.6,309.4z"/>
		<path class="st2" d="M247.9,312.9l-10.3,14.8c-2.7,3.9-3.4,8.9-1.7,13.4l6.3,16.9c4.2,11.3-6.3,22.5-17.9,19l-17.2-5.3
			c-4.6-1.4-9.5-0.5-13.3,2.5l-14.1,11.2c-9.4,7.5-23.4,0.9-23.6-11.1l-0.3-18c-0.1-4.8-2.5-9.2-6.5-11.9l-15-9.9
			c-10-6.6-8.1-21.9,3.3-25.9l17-5.9c4.5-1.6,8-5.2,9.3-9.9l4.8-17.4c3.2-11.6,18.4-14.5,25.6-4.9l10.9,14.4c2.9,3.8,7.4,6,12.2,5.8
			l18-0.8C247.4,289.5,254.8,303,247.9,312.9L247.9,312.9z"/>
		<path class="st3" d="M234.4,317.3l-7.9,11.3c-2.1,3-2.6,6.9-1.3,10.3l4.9,13c3.2,8.7-4.9,17.3-13.7,14.6l-13.2-4
			c-3.5-1.1-7.3-0.4-10.2,1.9l-10.8,8.6c-7.2,5.8-17.9,0.7-18.1-8.5l-0.2-13.8c-0.1-3.7-1.9-7.1-5-9.1l-11.5-7.6
			c-7.7-5.1-6.2-16.9,2.5-19.9l13.1-4.5c3.5-1.2,6.1-4,7.1-7.6l3.7-13.3c2.5-8.9,14.1-11.1,19.7-3.7l8.3,11c2.2,2.9,5.7,4.6,9.4,4.4
			l13.8-0.6C234,299.4,239.7,309.8,234.4,317.3L234.4,317.3z"/>
		<path class="st2" d="M836.9,593.2l-10.3,14.8c-2.7,3.9-3.4,8.9-1.7,13.4l6.3,16.9c4.2,11.3-6.3,22.5-17.8,19l-17.2-5.3
			c-4.6-1.4-9.5-0.5-13.3,2.5l-14.1,11.2c-9.4,7.5-23.3,0.9-23.6-11.1l-0.3-18c-0.1-4.8-2.5-9.2-6.5-11.8l-15-9.9
			c-10-6.7-8.1-21.9,3.3-25.8l17-5.9c4.5-1.6,8-5.2,9.3-9.8l4.8-17.4c3.2-11.6,18.3-14.5,25.6-4.9l10.8,14.4c2.9,3.8,7.5,6,12.2,5.8
			l18-0.8C836.4,569.8,843.8,583.3,836.9,593.2L836.9,593.2z"/>
		<path class="st3" d="M824.3,597.5l-7.9,11.3c-2.1,3-2.6,6.9-1.3,10.3l4.8,13c3.2,8.7-4.9,17.3-13.7,14.6l-13.2-4
			c-3.5-1.1-7.3-0.3-10.2,1.9l-10.8,8.6c-7.2,5.8-18,0.7-18.1-8.5l-0.2-13.8c-0.1-3.7-1.9-7.1-5-9.1l-11.5-7.6
			c-7.7-5.1-6.2-16.8,2.5-19.9l13.1-4.5c3.5-1.2,6.1-4,7.1-7.6l3.7-13.3c2.5-8.9,14.1-11.1,19.7-3.7l8.3,11c2.2,2.9,5.7,4.6,9.4,4.4
			l13.8-0.6C823.9,579.6,829.6,590,824.3,597.5L824.3,597.5z"/>
		<path class="st4" d="M223.2,319.4l-5.8,8.3c-1.5,2.2-1.9,5-1,7.6l3.6,9.5c2.4,6.4-3.6,12.7-10.1,10.7l-9.7-3
			c-2.6-0.8-5.4-0.2-7.5,1.4l-7.9,6.3c-5.3,4.2-13.2,0.5-13.3-6.3l-0.2-10.1c-0.1-2.7-1.4-5.2-3.7-6.7l-8.5-5.6
			c-5.7-3.8-4.6-12.4,1.9-14.6l9.6-3.3c2.6-0.9,4.5-3,5.2-5.5l2.7-9.8c1.8-6.5,10.3-8.2,14.4-2.7l6.1,8.1c1.6,2.1,4.2,3.4,6.9,3.2
			l10.1-0.4C222.9,306.2,227.1,313.8,223.2,319.4L223.2,319.4z"/>
		<path class="st1" d="M499.2,721.1l-13,18.6c-3.5,5-4.3,11.3-2.1,16.9l8,21.3c5.3,14.2-8,28.4-22.5,24l-21.8-6.6
			c-5.8-1.8-12-0.6-16.8,3.2l-17.8,14.2c-11.9,9.5-29.5,1.2-29.8-14l-0.4-22.7c-0.1-6-3.2-11.6-8.2-15l-19-12.5
			c-12.7-8.4-10.2-27.7,4.1-32.6l21.5-7.4c5.7-2,10.1-6.6,11.7-12.4l6.1-21.9c4.1-14.7,23.2-18.3,32.3-6.1l13.7,18.2
			c3.6,4.8,9.4,7.5,15.4,7.3l22.7-1C498.5,691.7,507.9,708.7,499.2,721.1L499.2,721.1z"/>
		<path class="st2" d="M485.5,724.6l-10.3,14.8c-2.7,3.9-3.4,8.9-1.7,13.4l6.3,16.9c4.2,11.3-6.3,22.5-17.9,19l-17.2-5.3
			c-4.6-1.4-9.5-0.5-13.3,2.5l-14.1,11.2c-9.4,7.5-23.4,0.9-23.6-11.1l-0.3-18c-0.1-4.8-2.5-9.2-6.5-11.8l-15-9.9
			c-10-6.7-8.1-21.9,3.3-25.8l17-5.9c4.5-1.6,8-5.2,9.3-9.8l4.8-17.4c3.2-11.6,18.4-14.5,25.6-4.9l10.9,14.4c2.9,3.8,7.5,6,12.2,5.8
			l18-0.8C485,701.2,492.4,714.7,485.5,724.6L485.5,724.6z"/>
		<path class="st3" d="M471.9,729.1l-7.9,11.3c-2.1,3-2.6,6.9-1.3,10.3l4.9,13c3.2,8.7-4.9,17.3-13.7,14.6l-13.2-4
			c-3.5-1.1-7.3-0.3-10.2,1.9l-10.8,8.6c-7.2,5.8-18,0.7-18.1-8.5l-0.2-13.8c-0.1-3.7-1.9-7.1-5-9.1l-11.5-7.6
			c-7.7-5.1-6.2-16.8,2.5-19.9l13.1-4.5c3.5-1.2,6.1-4,7.1-7.6l3.7-13.3c2.5-8.9,14.1-11.1,19.7-3.7l8.3,11c2.2,2.9,5.7,4.6,9.4,4.4
			l13.8-0.6C471.6,711.1,477.3,721.5,471.9,729.1L471.9,729.1z"/>
		<path class="st4" d="M460.8,731.1l-5.8,8.3c-1.5,2.2-1.9,5-1,7.6l3.5,9.5c2.4,6.4-3.6,12.7-10.1,10.7l-9.7-3
			c-2.6-0.8-5.4-0.2-7.5,1.4l-8,6.3c-5.3,4.2-13.2,0.5-13.3-6.3l-0.2-10.2c0-2.7-1.4-5.2-3.7-6.7l-8.5-5.6
			c-5.7-3.8-4.6-12.4,1.9-14.6l9.6-3.3c2.5-0.9,4.5-3,5.2-5.5l2.7-9.8c1.8-6.5,10.3-8.2,14.4-2.7l6.1,8.1c1.6,2.2,4.2,3.4,6.9,3.2
			l10.1-0.4C460.5,717.9,464.7,725.5,460.8,731.1L460.8,731.1z"/>
		<path class="st4" d="M178.7,634.5l-5.8,8.3c-1.5,2.2-1.9,5-1,7.6l3.6,9.5c2.4,6.4-3.6,12.7-10.1,10.7l-9.7-3
			c-2.6-0.8-5.4-0.2-7.5,1.4l-7.9,6.3c-5.3,4.2-13.2,0.5-13.3-6.3l-0.2-10.2c-0.1-2.7-1.4-5.2-3.7-6.7l-8.5-5.6
			c-5.7-3.8-4.6-12.4,1.8-14.6l9.6-3.3c2.6-0.9,4.5-3,5.2-5.5l2.7-9.8c1.8-6.5,10.3-8.2,14.4-2.7l6.1,8.1c1.6,2.2,4.2,3.4,6.9,3.2
			l10.1-0.4C178.4,621.3,182.6,628.9,178.7,634.5L178.7,634.5z"/>
		<path class="st4" d="M168.8,94.1l-5.8,8.3c-1.5,2.2-1.9,5-1,7.6l3.6,9.5c2.4,6.4-3.6,12.7-10.1,10.7l-9.7-3
			c-2.6-0.8-5.4-0.2-7.5,1.4l-7.9,6.3c-5.3,4.2-13.2,0.5-13.3-6.3l-0.2-10.2c-0.1-2.7-1.4-5.2-3.7-6.7l-8.5-5.6
			c-5.7-3.8-4.6-12.4,1.8-14.6l9.6-3.3c2.6-0.9,4.5-2.9,5.2-5.6l2.7-9.8c1.8-6.5,10.3-8.2,14.4-2.7l6.1,8.1c1.6,2.2,4.2,3.4,6.9,3.2
			l10.1-0.4C168.5,81,172.7,88.6,168.8,94.1L168.8,94.1z"/>
		<path class="st4" d="M841.4,98.7l-5.8,8.3c-1.5,2.2-1.9,5-1,7.6l3.5,9.5c2.4,6.4-3.6,12.7-10.1,10.7l-9.7-3
			c-2.6-0.8-5.4-0.2-7.5,1.4l-8,6.3c-5.3,4.2-13.2,0.5-13.3-6.3l-0.2-10.2c0-2.7-1.4-5.2-3.7-6.7l-8.5-5.6
			c-5.7-3.8-4.6-12.4,1.8-14.6l9.6-3.3c2.5-0.9,4.5-2.9,5.2-5.6l2.7-9.8c1.8-6.5,10.3-8.2,14.4-2.7l6.1,8.1c1.6,2.2,4.2,3.4,6.9,3.2
			l10.1-0.4C841.1,85.6,845.2,93.2,841.4,98.7L841.4,98.7z"/>
		<path class="st2" d="M1300.3,487.1l11.2-14.1c3-3.7,3.9-8.7,2.5-13.3l-5.3-17.2c-3.5-11.5,7.7-22.1,19-17.9l16.9,6.3
			c4.5,1.7,9.5,1,13.4-1.7l14.8-10.3c9.9-6.9,23.4,0.5,22.8,12.5l-0.8,18c-0.2,4.8,1.9,9.4,5.8,12.2l14.4,10.9
			c9.6,7.2,6.7,22.4-4.9,25.6l-17.4,4.8c-4.6,1.3-8.3,4.7-9.8,9.3l-5.9,17c-3.9,11.4-19.2,13.3-25.8,3.3l-9.9-15
			c-2.6-4-7.1-6.4-11.8-6.5l-18-0.3C1299.4,510.4,1292.8,496.5,1300.3,487.1L1300.3,487.1z"/>
		<path class="st3" d="M1313.2,483.5l8.6-10.8c2.3-2.9,3-6.7,1.9-10.2l-4-13.2c-2.7-8.9,5.9-17,14.6-13.7l13,4.9
			c3.4,1.3,7.3,0.8,10.3-1.3l11.3-7.9c7.6-5.3,18,0.4,17.6,9.6l-0.6,13.8c-0.2,3.7,1.5,7.2,4.4,9.4l11.1,8.3
			c7.4,5.6,5.2,17.2-3.7,19.7l-13.3,3.7c-3.5,1-6.4,3.6-7.6,7.1l-4.5,13.1c-3,8.8-14.8,10.2-19.9,2.5l-7.6-11.5
			c-2-3.1-5.4-4.9-9.1-5l-13.8-0.2C1312.5,501.4,1307.5,490.7,1313.2,483.5L1313.2,483.5z"/>
		<path class="st2" d="M1063.5,133.1l11.2-14.1c3-3.7,3.9-8.7,2.5-13.3l-5.3-17.2c-3.5-11.5,7.7-22.1,19-17.8l16.9,6.3
			c4.5,1.7,9.5,1,13.4-1.7L1136,65c9.9-6.9,23.4,0.5,22.8,12.5l-0.8,18c-0.2,4.8,1.9,9.3,5.8,12.2l14.4,10.8
			c9.6,7.2,6.7,22.4-4.9,25.6l-17.4,4.8c-4.6,1.3-8.3,4.7-9.8,9.3l-5.9,17c-3.9,11.4-19.2,13.3-25.8,3.3l-9.9-15
			c-2.6-4-7.1-6.4-11.8-6.5l-18-0.3C1062.5,156.5,1056,142.6,1063.5,133.1L1063.5,133.1z"/>
		<path class="st3" d="M1076.3,129.5l8.6-10.8c2.3-2.9,3-6.7,1.9-10.2l-4-13.2c-2.7-8.8,5.9-17,14.6-13.7l13,4.8
			c3.4,1.3,7.3,0.8,10.3-1.3l11.3-7.9c7.6-5.3,18,0.4,17.6,9.6l-0.6,13.8c-0.2,3.7,1.5,7.2,4.4,9.4l11.1,8.3
			c7.4,5.6,5.2,17.2-3.7,19.7l-13.3,3.7c-3.5,1-6.4,3.6-7.6,7.1l-4.5,13.1c-3,8.8-14.8,10.2-19.9,2.5l-7.6-11.5
			c-2-3.1-5.4-4.9-9.1-5l-13.8-0.2C1075.7,147.5,1070.6,136.8,1076.3,129.5L1076.3,129.5z"/>
		<path class="st4" d="M1047.2,955.3l6.3-8c1.7-2.1,2.2-4.9,1.4-7.5l-3-9.7c-2-6.5,4.3-12.4,10.7-10.1l9.5,3.5
			c2.5,0.9,5.3,0.6,7.6-1l8.3-5.8c5.6-3.9,13.2,0.3,12.9,7.1l-0.4,10.1c-0.1,2.7,1.1,5.3,3.2,6.9l8.1,6.1c5.4,4.1,3.8,12.6-2.7,14.4
			l-9.8,2.7c-2.6,0.7-4.7,2.7-5.6,5.2l-3.3,9.6c-2.2,6.4-10.8,7.5-14.6,1.8l-5.6-8.5c-1.5-2.2-4-3.6-6.7-3.7l-10.2-0.2
			C1046.7,968.4,1043,960.6,1047.2,955.3L1047.2,955.3z"/>
		<path class="st4" d="M1346.8,221.6l6.3-7.9c1.7-2.1,2.2-4.9,1.4-7.5l-3-9.7c-2-6.5,4.3-12.4,10.7-10.1l9.5,3.6
			c2.5,0.9,5.3,0.6,7.6-1l8.3-5.8c5.6-3.9,13.2,0.3,12.9,7.1l-0.4,10.1c-0.1,2.7,1.1,5.3,3.2,6.9l8.1,6.1c5.4,4.1,3.8,12.6-2.7,14.4
			l-9.8,2.7c-2.6,0.7-4.7,2.7-5.6,5.2l-3.3,9.6c-2.2,6.4-10.8,7.5-14.6,1.9l-5.6-8.5c-1.5-2.2-4-3.6-6.7-3.7l-10.2-0.2
			C1346.3,234.7,1342.6,226.9,1346.8,221.6L1346.8,221.6z"/>
		<path class="st4" d="M656.1,362.5l6.3-8c1.7-2.1,2.2-4.9,1.4-7.5l-3-9.7c-2-6.5,4.3-12.4,10.7-10.1l9.5,3.5c2.5,0.9,5.3,0.6,7.6-1
			l8.3-5.8c5.6-3.9,13.2,0.3,12.9,7.1l-0.4,10.1c-0.1,2.7,1.1,5.3,3.2,6.9l8.1,6.1c5.4,4.1,3.8,12.6-2.7,14.4l-9.8,2.7
			c-2.6,0.7-4.7,2.7-5.5,5.2l-3.3,9.6c-2.2,6.4-10.8,7.5-14.6,1.9l-5.6-8.5c-1.5-2.2-4-3.6-6.7-3.7l-10.2-0.2
			C655.5,375.7,651.8,367.8,656.1,362.5L656.1,362.5z"/>
		<path class="st1" d="M1655.3,581.3l14.2-17.8c3.8-4.7,4.9-11,3.2-16.8L1666,525c-4.4-14.5,9.7-27.9,24-22.5l21.3,8
			c5.7,2.1,12,1.3,16.9-2.1l18.6-13c12.5-8.7,29.5,0.6,28.8,15.8l-1,22.7c-0.3,6,2.5,11.8,7.3,15.4l18.2,13.7
			c12.1,9.2,8.5,28.2-6.1,32.3l-21.9,6.1c-5.8,1.6-10.5,6-12.4,11.7l-7.4,21.5c-5,14.4-24.2,16.8-32.6,4.1l-12.6-19
			c-3.3-5-8.9-8.1-15-8.2l-22.7-0.4C1654.2,610.8,1645.9,593.2,1655.3,581.3L1655.3,581.3z"/>
		<path class="st2" d="M1669.2,578.7l11.2-14.1c3-3.7,3.9-8.7,2.5-13.3l-5.3-17.2c-3.5-11.5,7.7-22.1,19-17.8l16.9,6.3
			c4.5,1.7,9.5,1,13.4-1.7l14.8-10.3c9.9-6.9,23.4,0.5,22.8,12.5l-0.8,18c-0.2,4.8,1.9,9.3,5.8,12.2l14.4,10.8
			c9.6,7.2,6.7,22.4-4.9,25.6l-17.4,4.8c-4.6,1.3-8.3,4.7-9.8,9.3l-5.9,17c-3.9,11.4-19.2,13.3-25.8,3.3l-9.9-15
			c-2.6-4-7.1-6.4-11.8-6.5l-18-0.3C1668.2,602,1661.7,588.1,1669.2,578.7L1669.2,578.7z"/>
		<path class="st3" d="M1683,575l8.6-10.8c2.3-2.9,3-6.7,1.9-10.2l-4-13.2c-2.7-8.8,5.9-17,14.6-13.7l13,4.8
			c3.4,1.3,7.3,0.8,10.3-1.3l11.3-7.9c7.6-5.3,18,0.4,17.6,9.6l-0.6,13.8c-0.2,3.7,1.5,7.2,4.4,9.4l11.1,8.3
			c7.4,5.6,5.2,17.2-3.7,19.7l-13.3,3.7c-3.5,1-6.4,3.6-7.6,7.1l-4.5,13.1c-3,8.8-14.8,10.2-19.9,2.5l-7.6-11.5
			c-2-3.1-5.4-4.9-9.1-5l-13.8-0.2C1682.3,593,1677.3,582.3,1683,575L1683,575z"/>
		<path class="st4" d="M1694.2,573.7l6.3-8c1.7-2.1,2.2-4.9,1.4-7.5l-3-9.7c-2-6.5,4.3-12.4,10.7-10.1l9.5,3.5
			c2.5,0.9,5.3,0.6,7.6-1l8.3-5.8c5.6-3.9,13.2,0.3,12.9,7.1l-0.4,10.1c-0.1,2.7,1.1,5.3,3.2,6.9l8.1,6.1c5.4,4.1,3.8,12.6-2.7,14.4
			l-9.8,2.7c-2.6,0.7-4.7,2.7-5.6,5.2l-3.3,9.6c-2.2,6.4-10.8,7.5-14.6,1.8l-5.6-8.5c-1.5-2.2-4-3.6-6.7-3.7l-10.2-0.2
			C1693.7,586.9,1690,579,1694.2,573.7L1694.2,573.7z"/>
		<path class="st4" d="M1404.7,838.8l6.3-8c1.7-2.1,2.2-4.9,1.4-7.5l-3-9.7c-2-6.5,4.3-12.4,10.7-10.1l9.5,3.5
			c2.5,0.9,5.3,0.6,7.6-1l8.3-5.8c5.6-3.9,13.2,0.3,12.9,7.1l-0.4,10.1c-0.1,2.7,1.1,5.3,3.2,6.9l8.1,6.1c5.4,4.1,3.8,12.6-2.7,14.4
			l-9.8,2.7c-2.6,0.7-4.7,2.7-5.6,5.2l-3.3,9.6c-2.2,6.4-10.8,7.5-14.6,1.8l-5.6-8.5c-1.5-2.2-4-3.6-6.7-3.7l-10.2-0.2
			C1404.2,852,1400.5,844.1,1404.7,838.8L1404.7,838.8z"/>
		<path class="st4" d="M536.1,983.5l6.3-8c1.7-2.1,2.2-4.9,1.4-7.5l-3-9.7c-2-6.5,4.3-12.4,10.7-10.1l9.5,3.5c2.5,0.9,5.3,0.6,7.6-1
			l8.3-5.8c5.6-3.9,13.2,0.3,12.9,7.1l-0.4,10.1c-0.1,2.7,1.1,5.3,3.2,6.9l8.1,6.1c5.4,4.1,3.8,12.6-2.7,14.4l-9.8,2.7
			c-2.6,0.7-4.7,2.7-5.5,5.2l-3.3,9.6c-2.2,6.4-10.8,7.5-14.6,1.8l-5.6-8.5c-1.5-2.2-4-3.6-6.7-3.7l-10.2-0.2
			C535.5,996.6,531.8,988.8,536.1,983.5L536.1,983.5z"/>
	</g>
</g>
<path class="st5" d="M514.9,408.3l143-64.4c38-17.1,64.9-51.5,72.1-92.1l27-152.6c18.1-102,147.1-139.2,218.3-63l106.5,114.1
	c28.3,30.3,69.9,44.9,111.2,39.2l155.7-21.7c104.1-14.5,180,94.9,128.4,185.1l-77.1,135c-20.5,35.8-21.7,79.3-3.4,116.3l69.2,139.2
	c46.2,93.1-35.8,197.9-138.9,177.4l-154.2-30.7c-40.9-8.1-83.3,4.1-113.3,32.7l-113,107.7c-75.5,72-202.1,27.4-214.3-75.5L714,801
	c-4.8-40.9-29.7-76.8-66.6-96.1l-139-72.6C415.5,583.8,419.3,451.4,514.9,408.3L514.9,408.3z"/>
<g>
	<path class="st4" d="M952.3,624.8c0,0-36.3-5.2-43.7,18.2c-7.4,23.4,289.4,166.3,334.5,122.4c45.1-43.9-29.4-94.7-29.4-94.7
		L952.3,624.8L952.3,624.8z"/>
	<g>
		<path class="st3" d="M1219.9,676c19.4,5.6,39.9,4.3,59.9,3.7s41.6-1.5,62.4-2c2.6-0.1,5.2-0.1,7.7,0c1.1,0,2.2,0.1,3.4,0.2
			c0.6,0,1.3,0.1,1.9,0.2c0.1,0,0.9,0.1,0.2,0c0.4,0,0.8,0.1,1.2,0.2c4.1,0.7,8,1.8,11.9,3.3c0.1,0,0.7,0.3,0.2,0.1
			c-0.5-0.2,0.2,0.1,0.4,0.2c0.5,0.2,0.9,0.4,1.4,0.7c0.9,0.5,1.9,0.9,2.8,1.4c1.8,1,3.5,2,5.2,3.2c0.8,0.5,1.6,1.1,2.4,1.7
			c0.2,0.2,0.4,0.3,0.6,0.5c0.6,0.4-0.5-0.4,0,0c0.5,0.4,0.9,0.7,1.4,1.1c1.6,1.3,3.1,2.7,4.6,4.1s2.8,2.9,4.2,4.5
			c0.3,0.4,0.7,0.8,1,1.2c0.2,0.2,0.3,0.4,0.5,0.6c0.1,0.1,0.5,0.7,0.1,0c0.7,0.9,1.3,1.8,1.9,2.7c1.2,1.8,2.3,3.6,3.2,5.5
			c0.2,0.5,0.5,1,0.7,1.5c0.2,0.5,0,0-0.1-0.1c0.1,0.2,0.2,0.5,0.3,0.8c0.4,1,0.7,2,1,3.1s0.5,2.1,0.7,3.1c0,0.1,0.1,0.7,0,0.2
			c-0.1-0.6,0,0.2,0,0.4c0.1,0.6,0.1,1.2,0.1,1.8c0,1-0.1,1.9-0.1,2.9c0,0.7,0.1-0.7,0,0c0,0.2-0.1,0.4-0.1,0.6
			c-0.1,0.6-0.2,1.2-0.4,1.7c-0.1,0.5-0.3,1-0.5,1.5c-0.1,0.2-0.1,0.4-0.2,0.6c0.3-0.8,0.1-0.1,0,0c-0.5,0.9-1,1.8-1.5,2.7
			c-0.3,0.4-0.6,0.9-0.9,1.3c0.6-0.7-0.4,0.5-0.5,0.6c-0.7,0.8-1.4,1.5-2.2,2.3c-0.7,0.7-1.5,1.3-2.2,2c-0.2,0.2-1.1,0.9-0.5,0.4
			c-0.5,0.4-1,0.7-1.4,1.1c-1.8,1.3-3.7,2.6-5.6,3.8c-4.1,2.7-8.2,5.2-12.4,7.7c-8.3,4.9-16.9,9.3-25.7,13.3c-2.2,1-4.4,2-6.6,2.9
			s-2.8,4.3-1.6,6.2c1.5,2.3,3.8,2.6,6.2,1.6c9.2-3.9,18.2-8.2,26.8-13.1c8.4-4.7,16.9-9.7,24.6-15.5c3.8-2.9,7.4-6.1,10-10.1
			s3.9-8.7,4-13.4c0.1-9.6-4.7-18.6-10.4-25.9c-11.2-14.1-27.5-24-45.5-25.8c-5.1-0.5-10.3-0.4-15.5-0.2s-10.8,0.3-16.2,0.5
			c-10.7,0.3-21.4,0.7-32.2,1c-10.5,0.3-20.9,0.8-31.4,0.9c-5.1,0.1-10.2,0-15.3-0.3c-2.5-0.2-5-0.4-7.5-0.7c-0.3,0-0.6-0.1-0.9-0.1
			c0.2,0,0.7,0.1-0.2,0c-0.5-0.1-1.1-0.2-1.6-0.2c-1.3-0.2-2.6-0.4-3.9-0.7c-2.5-0.5-4.9-1.1-7.3-1.8c-2.3-0.7-5,0.8-5.5,3.1
			S1217.5,675.3,1219.9,676L1219.9,676L1219.9,676z"/>
	</g>
	<path class="st2" d="M864.1,194.3l360,30.1c9.6,0.8,16.8,8.9,16.5,18.5l-11.8,414.5c-0.3,11.4-11,19.6-22.1,17.1l-349.1-80.2
		c-8.2-1.9-14-9.2-14-17.6l0.8-364.4C844.6,201.7,853.6,193.4,864.1,194.3L864.1,194.3z"/>
	<path class="st3" d="M873.3,564.5l308,70.7c6.3,1.4,12.3-3.2,12.6-9.6l15.4-344.9c0.3-7.1-5-13.1-12-13.8l-319.7-29.8
		c-6.9-0.6-12.8,4.8-12.8,11.6v305.2C864.8,558.9,868.3,563.3,873.3,564.5L873.3,564.5z"/>
	<path class="st2" d="M1175.7,708.3c0,0,19.4,11.2,21.2,28.1c0.7,6.5,1.2,12.5,1.4,17.5c0.4,8.2-3.2,16.1-9.7,21
		c-27.8,20.8-104.2,77.1-120,79.4c-14.2,2.1-330-108.7-387.2-128.8c-3.5-1.2-4-6.1-0.8-8c27.6-16.9,118.7-71.8,149.7-80.1
		c5.1-1.4,10.2-3.2,15-5.4c6.6-2.9,17.2-5.5,30.2-1.3c2.4,0.8,4.9,1.5,7.3,2.2L1175.7,708.3L1175.7,708.3z"/>
	<path class="st3" d="M953.2,615.9l-1.8,28.5c0,0-33.1,12-25.8,23l153.7,40.5c0,0,7.2-28.2,23.1-16.2c1.3,1,3.2,0.9,4.3-0.3l6.2-6.7
		c1.9-2,1.9-5.2,0-7.2c-3.6-4-7.4-11,0.4-18.3l9.2-5.5L953.2,615.9z"/>
	<path class="st3" d="M1326.8,764c0,0-112.7-26.3-124.2,71.7c-1,8.8,2.6,17.5,9.7,22.9c16.1,12.2,51.1,29.3,109.3,11.7
		c2.8-0.9,5.6-2.1,8.2-3.6c15.5-9.2,72.8-44.7,68.9-62.2C1393.9,784.3,1326.7,764,1326.8,764L1326.8,764z"/>
	<path class="st4" d="M1329.3,767.2c13.7,6.4,42.8,22,50.7,40.7c0.1,0.2,0.2,0.3,0.4,0.4c1.7,1,10.7,5.5,18.1-2
		c8-8-53.8-40.2-57.8-42.2c-0.1-0.1-0.3-0.1-0.4-0.1h-10.3C1328.3,764.1,1327.7,766.5,1329.3,767.2L1329.3,767.2z"/>
	<path class="st6" d="M1096.3,817.8c1.9,0,1.9-3,0-3S1094.3,817.8,1096.3,817.8L1096.3,817.8z"/>
	<path class="st4" d="M820.9,651.5l-107.1,56c-4.6,2.4-4,9.1,0.9,10.7l334.6,108c1.7,0.5,3.6,0.3,5.1-0.7l104.9-70.5
		c4.1-2.8,3.1-9.1-1.7-10.5L825.2,651C823.8,650.6,822.3,650.8,820.9,651.5L820.9,651.5z"/>
	<path class="st2" d="M816.1,655.6l-11.1,7.5c-1.7,1.1-1.3,3.6,0.6,4.3l13.3,4.7c0.8,0.3,1.6,0.1,2.3-0.4l14.4-10.9
		c1.6-1.2,1.2-3.6-0.7-4.2L827,654C823.3,652.8,819.3,653.4,816.1,655.6L816.1,655.6z"/>
	<path class="st2" d="M836.8,662.3l-10.6,8.2c-1.6,1.2-1.1,3.7,0.8,4.3l13.5,3.9c0.8,0.2,1.6,0,2.3-0.5l13.7-11.7
		c1.5-1.3,0.9-3.7-1-4.2l-7.9-2.1C843.9,659.1,839.9,659.9,836.8,662.3L836.8,662.3z"/>
	<path class="st2" d="M858.9,669.7l-10.5,8.2c-1.6,1.2-1.1,3.7,0.8,4.3l13.5,3.8c0.8,0.2,1.6,0,2.2-0.5l13.6-11.9
		c1.5-1.3,0.9-3.7-1-4.2l-7.9-2C865.9,666.5,861.9,667.3,858.9,669.7L858.9,669.7z"/>
	<path class="st2" d="M880.7,676.3l-10.2,8.6c-1.5,1.3-1,3.8,1,4.2l13.7,3.3c0.8,0.2,1.6,0,2.2-0.6l13.2-12.3
		c1.4-1.3,0.8-3.7-1.1-4.2l-8-1.8C887.6,672.8,883.7,673.8,880.7,676.3L880.7,676.3z"/>
	<path class="st2" d="M902.8,682.7l-10.2,8.6c-1.5,1.3-1,3.8,1,4.2l13.7,3.3c0.8,0.2,1.6,0,2.2-0.6l13.2-12.3
		c1.4-1.3,0.8-3.7-1.1-4.2l-8-1.8C909.7,679.3,905.8,680.3,902.8,682.7L902.8,682.7z"/>
	<path class="st2" d="M925.8,689.2l-10.2,8.6c-1.5,1.3-1,3.8,1,4.2l13.7,3.3c0.8,0.2,1.6,0,2.2-0.6l13.2-12.3
		c1.4-1.3,0.8-3.7-1.1-4.2l-8-1.8C932.7,685.7,928.8,686.7,925.8,689.2L925.8,689.2z"/>
	<path class="st2" d="M948.8,695.6l-10.2,8.6c-1.5,1.3-1,3.8,1,4.2l13.7,3.3c0.8,0.2,1.6,0,2.2-0.6l13.2-12.3
		c1.4-1.3,0.8-3.7-1.1-4.2l-8-1.8C955.7,692.2,951.8,693.1,948.8,695.6L948.8,695.6z"/>
	<path class="st2" d="M971.8,702l-10.2,8.6c-1.5,1.3-1,3.8,1,4.2l13.7,3.3c0.8,0.2,1.6,0,2.2-0.6l13.2-12.3c1.4-1.3,0.8-3.7-1.1-4.2
		l-8-1.8C978.7,698.6,974.8,699.6,971.8,702L971.8,702z"/>
	<path class="st2" d="M994.8,708.5l-10.2,8.6c-1.5,1.3-1,3.8,1,4.2l13.7,3.3c0.8,0.2,1.6,0,2.2-0.6l13.2-12.3
		c1.4-1.3,0.8-3.7-1.1-4.2l-8-1.8C1001.7,705,997.8,706,994.8,708.5L994.8,708.5z"/>
	<path class="st2" d="M1017.8,714.9l-10.2,8.6c-1.5,1.3-1,3.8,1,4.2l13.7,3.3c0.8,0.2,1.6,0,2.2-0.6l13.2-12.3
		c1.4-1.3,0.8-3.7-1.1-4.2l-8-1.8C1024.7,711.5,1020.8,712.5,1017.8,714.9L1017.8,714.9z"/>
	<path class="st2" d="M1041.7,721.4l-10.2,8.6c-1.5,1.3-0.9,3.8,1,4.2l13.7,3.3c0.8,0.2,1.6,0,2.2-0.6l13.2-12.3
		c1.4-1.3,0.8-3.7-1.1-4.2l-8-1.8C1048.6,717.9,1044.7,718.9,1041.7,721.4L1041.7,721.4z"/>
	<path class="st2" d="M1063.8,727.8l-10.2,8.6c-1.5,1.3-0.9,3.8,1,4.2l13.7,3.3c0.8,0.2,1.6,0,2.2-0.6l13.2-12.3
		c1.4-1.3,0.8-3.7-1.1-4.2l-8-1.8C1070.7,724.4,1066.8,725.3,1063.8,727.8L1063.8,727.8z"/>
	<path class="st2" d="M1085,733.3l-10.2,8.6c-1.5,1.3-0.9,3.8,1,4.2l13.7,3.3c0.8,0.2,1.6,0,2.2-0.6l13.2-12.3
		c1.4-1.3,0.8-3.7-1.1-4.2l-8-1.8C1091.9,729.9,1087.9,730.9,1085,733.3L1085,733.3z"/>
	<path class="st2" d="M1067.5,752.7l-10.2,8.6c-1.5,1.3-0.9,3.8,1,4.2l13.7,3.3c0.8,0.2,1.6,0,2.2-0.6l13.2-12.3
		c1.4-1.3,0.8-3.7-1.1-4.2l-8-1.8C1074.4,749.2,1070.5,750.2,1067.5,752.7L1067.5,752.7z"/>
	<path class="st2" d="M1046.3,772.9l-10.2,8.6c-1.5,1.3-0.9,3.8,1,4.2l13.7,3.3c0.8,0.2,1.6,0,2.2-0.6l13.2-12.3
		c1.4-1.3,0.8-3.7-1.1-4.2l-8-1.8C1053.2,769.5,1049.3,770.4,1046.3,772.9L1046.3,772.9z"/>
	<path class="st2" d="M1001.3,760l-10.2,8.6c-1.5,1.3-1,3.8,1,4.2l13.7,3.3c0.8,0.2,1.6,0,2.2-0.6l13.2-12.3
		c1.4-1.3,0.8-3.7-1.1-4.2l-8-1.8C1008.2,756.6,1004.2,757.5,1001.3,760L1001.3,760z"/>
	<path class="st2" d="M1024.3,766.5l-10.2,8.6c-1.5,1.3-1,3.8,1,4.2l13.7,3.3c0.8,0.2,1.6,0,2.2-0.6l13.2-12.3
		c1.4-1.3,0.8-3.7-1.1-4.2l-8-1.8C1031.2,763,1027.2,764,1024.3,766.5L1024.3,766.5z"/>
	<path class="st2" d="M980.1,753.6l-10.2,8.6c-1.5,1.3-1,3.8,1,4.2l13.7,3.3c0.8,0.2,1.6,0,2.2-0.6l13.2-12.3
		c1.4-1.3,0.8-3.7-1.1-4.2l-8-1.8C987,750.1,983,751.1,980.1,753.6L980.1,753.6z"/>
	<path class="st2" d="M958,747.1l-10.2,8.6c-1.5,1.3-1,3.8,1,4.2l13.7,3.3c0.8,0.2,1.6,0,2.2-0.6l13.2-12.3c1.4-1.3,0.8-3.7-1.1-4.2
		l-8-1.8C964.9,743.7,961,744.7,958,747.1L958,747.1z"/>
	<path class="st2" d="M936.8,739.8l-10.2,8.6c-1.5,1.3-1,3.8,1,4.2l13.7,3.3c0.8,0.2,1.6,0,2.2-0.6l13.2-12.3
		c1.4-1.3,0.8-3.7-1.1-4.2l-8-1.8C943.7,736.3,939.8,737.3,936.8,739.8L936.8,739.8z"/>
	<path class="st2" d="M912,733.3l-10.2,8.6c-1.5,1.3-1,3.8,1,4.2l13.7,3.3c0.8,0.2,1.6,0,2.2-0.6l13.2-12.3c1.4-1.3,0.8-3.7-1.1-4.2
		l-8-1.8C918.9,729.9,915,730.9,912,733.3L912,733.3z"/>
	<path class="st2" d="M889,726.9l-10.2,8.6c-1.5,1.3-1,3.8,1,4.2l13.7,3.3c0.8,0.2,1.6,0,2.2-0.6l13.2-12.3c1.4-1.3,0.8-3.7-1.1-4.2
		l-8-1.8C895.9,723.4,891.9,724.4,889,726.9L889,726.9z"/>
	<path class="st2" d="M866,719.5l-10.2,8.6c-1.5,1.3-1,3.8,1,4.2l13.7,3.3c0.8,0.2,1.6,0,2.2-0.6l13.2-12.3c1.4-1.3,0.8-3.7-1.1-4.2
		l-8-1.8C872.9,716.1,868.9,717.1,866,719.5L866,719.5z"/>
	<path class="st2" d="M843,714l-10.2,8.6c-1.5,1.3-1,3.8,1,4.2l13.7,3.3c0.8,0.2,1.6,0,2.2-0.6l13.2-12.3c1.4-1.3,0.8-3.7-1.1-4.2
		l-8-1.8C849.9,710.6,845.9,711.5,843,714L843,714z"/>
	<path class="st2" d="M820,707.6l-10.2,8.6c-1.5,1.3-1,3.8,1,4.2l13.7,3.3c0.8,0.2,1.6,0,2.2-0.6l13.2-12.3c1.4-1.3,0.8-3.7-1.1-4.2
		l-8-1.8C826.9,704.1,822.9,705.1,820,707.6L820,707.6z"/>
	<path class="st2" d="M798.8,700.2l-10.2,8.6c-1.5,1.3-1,3.8,1,4.2l13.7,3.3c0.8,0.2,1.6,0,2.2-0.6l13.2-12.3
		c1.4-1.3,0.8-3.7-1.1-4.2l-8-1.8C805.7,696.8,801.8,697.7,798.8,700.2L798.8,700.2z"/>
	<path class="st2" d="M775.9,691.3l-11.4,7c-1.7,1-1.5,3.6,0.4,4.3l13,5.2c0.8,0.3,1.6,0.2,2.3-0.3l14.8-10.3
		c1.6-1.1,1.3-3.6-0.5-4.3l-7.7-2.9C783.3,688.9,779.2,689.3,775.9,691.3L775.9,691.3z"/>
	<path class="st2" d="M741,703.3l-11.4,7c-1.7,1-1.5,3.6,0.4,4.3l13,5.2c0.8,0.3,1.6,0.2,2.3-0.3l14.8-10.3c1.6-1.1,1.3-3.6-0.5-4.3
		l-7.7-2.9C748.3,700.8,744.3,701.2,741,703.3L741,703.3z"/>
	<path class="st2" d="M764,713.4l-11.4,7c-1.7,1-1.5,3.6,0.4,4.3l13,5.2c0.8,0.3,1.6,0.2,2.3-0.3l14.8-10.3c1.6-1.1,1.3-3.6-0.5-4.3
		l-7.7-2.9C771.3,710.9,767.3,711.3,764,713.4L764,713.4z"/>
	<path class="st2" d="M786.1,720.7l-11.4,7c-1.7,1-1.5,3.6,0.4,4.3l13,5.2c0.8,0.3,1.6,0.2,2.3-0.3l14.8-10.3
		c1.6-1.1,1.3-3.6-0.5-4.3l-7.7-2.9C793.4,718.3,789.4,718.7,786.1,720.7L786.1,720.7z"/>
	<path class="st2" d="M973.1,780.9l-10.7,8c-1.6,1.2-1.1,3.7,0.8,4.3l13.5,4c0.8,0.2,1.6,0.1,2.3-0.5l13.8-11.6
		c1.5-1.3,1-3.7-0.9-4.2l-7.9-2.2C980.2,777.8,976.2,778.6,973.1,780.9L973.1,780.9z"/>
	<path class="st2" d="M998.9,788.3l-10.7,8c-1.6,1.2-1.1,3.7,0.8,4.3l13.5,4c0.8,0.2,1.6,0.1,2.3-0.5l13.8-11.6
		c1.5-1.3,1-3.7-0.9-4.2l-7.9-2.2C1006,785.2,1002,786,998.9,788.3L998.9,788.3z"/>
	<path class="st2" d="M1049.5,804.9l-10.7,8c-1.6,1.2-1.1,3.7,0.8,4.3l13.5,4c0.8,0.2,1.6,0.1,2.3-0.5l13.8-11.6
		c1.5-1.3,1-3.7-0.9-4.2l-7.9-2.2C1056.5,801.8,1052.6,802.5,1049.5,804.9L1049.5,804.9z"/>
	<path class="st2" d="M1076.4,788.1l12.8,3.8c1.9,0.6,2.4,3.1,0.8,4.3l-11.2,8.5c-0.7,0.5-1.5,0.6-2.3,0.4l-17-6
		c-1.8-0.7-2.2-3.1-0.6-4.3l6.6-4.8C1068.7,787.7,1072.7,787,1076.4,788.1L1076.4,788.1z"/>
	<path class="st2" d="M1022.8,796.6l-10.7,8c-1.6,1.2-1.1,3.7,0.8,4.3l13.5,4c0.8,0.2,1.6,0.1,2.3-0.5l13.8-11.6
		c1.5-1.3,1-3.7-0.9-4.2l-7.9-2.2C1029.9,793.5,1025.9,794.3,1022.8,796.6L1022.8,796.6z"/>
	<path class="st2" d="M1045.4,745.3l-10.2,8.6c-1.5,1.3-0.9,3.8,1,4.2l13.7,3.3c0.8,0.2,1.6,0,2.2-0.6l13.2-12.3
		c1.4-1.3,0.8-3.7-1.1-4.2l-8-1.8C1052.3,741.8,1048.4,742.8,1045.4,745.3L1045.4,745.3z"/>
	<path class="st2" d="M1022.4,739.8l-10.2,8.6c-1.5,1.3-1,3.8,1,4.2l13.7,3.3c0.8,0.2,1.6,0,2.2-0.6l13.2-12.3
		c1.4-1.3,0.8-3.7-1.1-4.2l-8-1.8C1029.3,736.3,1025.4,737.3,1022.4,739.8L1022.4,739.8z"/>
	<path class="st2" d="M1001.3,733.3l-10.2,8.6c-1.5,1.3-1,3.8,1,4.2l13.7,3.3c0.8,0.2,1.6,0,2.2-0.6l13.2-12.3
		c1.4-1.3,0.8-3.7-1.1-4.2l-8-1.8C1008.2,729.9,1004.2,730.9,1001.3,733.3L1001.3,733.3z"/>
	<path class="st2" d="M978.3,727.8l-10.2,8.6c-1.5,1.3-1,3.8,1,4.2l13.7,3.3c0.8,0.2,1.6,0,2.2-0.6l13.2-12.3
		c1.4-1.3,0.8-3.7-1.1-4.2l-8-1.8C985.2,724.4,981.2,725.3,978.3,727.8L978.3,727.8z"/>
	<path class="st2" d="M954.3,720.5l-10.2,8.6c-1.5,1.3-1,3.8,1,4.2l13.7,3.3c0.8,0.2,1.6,0,2.2-0.6l13.2-12.3
		c1.4-1.3,0.8-3.7-1.1-4.2l-8-1.8C961.2,717,957.3,718,954.3,720.5L954.3,720.5z"/>
	<path class="st2" d="M930.4,714l-10.2,8.6c-1.5,1.3-1,3.8,1,4.2l13.7,3.3c0.8,0.2,1.6,0,2.2-0.6l13.2-12.3c1.4-1.3,0.8-3.7-1.1-4.2
		l-8-1.8C937.3,710.6,933.4,711.5,930.4,714L930.4,714z"/>
	<path class="st2" d="M907.4,707.6l-10.2,8.6c-1.5,1.3-1,3.8,1,4.2l13.7,3.3c0.8,0.2,1.6,0,2.2-0.6l13.2-12.3
		c1.4-1.3,0.8-3.7-1.1-4.2l-8-1.8C914.3,704.1,910.4,705.1,907.4,707.6L907.4,707.6z"/>
	<path class="st2" d="M884.4,701.1l-10.2,8.6c-1.5,1.3-1,3.8,1,4.2l13.7,3.3c0.8,0.2,1.6,0,2.2-0.6l13.2-12.3
		c1.4-1.3,0.8-3.7-1.1-4.2l-8-1.8C891.3,697.7,887.3,698.7,884.4,701.1L884.4,701.1z"/>
	<path class="st2" d="M862.3,694.7l-10.2,8.6c-1.5,1.3-1,3.8,1,4.2l13.7,3.3c0.8,0.2,1.6,0,2.2-0.6l13.2-12.3
		c1.4-1.3,0.8-3.7-1.1-4.2l-8-1.8C869.2,691.2,865.3,692.2,862.3,694.7L862.3,694.7z"/>
	<path class="st2" d="M839.3,687.3l-10.2,8.6c-1.5,1.3-1,3.8,1,4.2l13.7,3.3c0.8,0.2,1.6,0,2.2-0.6l13.2-12.3
		c1.4-1.3,0.8-3.7-1.1-4.2l-8-1.8C846.2,683.9,842.3,684.9,839.3,687.3L839.3,687.3z"/>
	<path class="st2" d="M817.2,680l-10.2,8.6c-1.5,1.3-1,3.8,1,4.2l13.7,3.3c0.8,0.2,1.6,0,2.2-0.6l13.2-12.3c1.4-1.3,0.8-3.7-1.1-4.2
		l-8-1.8C824.1,676.5,820.2,677.5,817.2,680L817.2,680z"/>
	<path class="st2" d="M795.7,672.3l-10.8,7.8c-1.6,1.2-1.2,3.7,0.7,4.3l13.4,4.3c0.8,0.2,1.6,0.1,2.3-0.4l14.1-11.3
		c1.5-1.2,1-3.7-0.8-4.2l-7.9-2.3C802.8,669.3,798.8,670,795.7,672.3L795.7,672.3z"/>
	<path class="st2" d="M814.1,727.1l152.8,45c2.3,0.7,2.9,3.5,1.2,5.1l-13.1,11.8c-0.8,0.7-1.9,1-2.9,0.6l-154.5-48.9
		c-2.5-0.8-2.9-4.2-0.5-5.5l14.8-8C812.5,727,813.3,726.9,814.1,727.1L814.1,727.1z"/>
	<path class="st2" d="M1083.7,768.8l-7.4,7.9c-1.9,2-1.1,5.3,1.6,6.2l22.1,7.6c1.1,0.4,2.3,0.2,3.3-0.4l32-20.8
		c2.6-1.7,2.2-5.5-0.6-6.7l-17-7.3c-1.4-0.6-2.9-0.3-4.1,0.7l-14.2,12.7c-0.9,0.8-2.2,1.1-3.3,0.9l-8.9-1.9
		C1086,767.4,1084.7,767.9,1083.7,768.8L1083.7,768.8z"/>
	<path class="st2" d="M1119.2,737.5l-12.2,7c-1.8,1-1.6,3.6,0.3,4.4l34.6,14.2c0.8,0.3,1.6,0.2,2.3-0.2l12.4-8.5
		c1.7-1.1,1.3-3.7-0.6-4.3l-34.9-12.7C1120.6,737,1119.8,737.1,1119.2,737.5L1119.2,737.5z"/>
</g>
</svg>
