<?xml version="1.0" encoding="UTF-8"?>
<svg id="Layer_4" data-name="Layer 4" xmlns="http://www.w3.org/2000/svg" width="260" height="240" viewBox="0 0 260 240">
  <defs>
    <style>
      .cls-1 {
        fill: #167049;
      }

      .cls-2, .cls-3 {
        fill: #267355;
      }

      .cls-4, .cls-3, .cls-5, .cls-6, .cls-7 {
        isolation: isolate;
      }

      .cls-5 {
        fill: #0d261c;
      }

      .cls-6 {
        fill: #1a4c39;
      }

      .cls-7 {
        fill: #319b72;
      }
    </style>
  </defs>
  <g id="Layer_6" data-name="Layer 6">
    <g>
      <path class="cls-7" d="m96.77,150.62s-12.54-1.8-15.08,6.29,99.82,57.37,115.37,42.21c15.55-15.16-10.16-32.67-10.16-32.67l-90.14-15.83Z"/>
      <g class="cls-4">
        <path class="cls-2" d="m188.3,171.12c6.76,1.92,13.81,1.61,20.75,1.39s13.82-.45,20.73-.67c1.63-.05,3.26-.11,4.88,0-.03,0,1.55.16.74.05.32.05.64.11.96.18.7.15,1.39.34,2.06.57.37.12.73.26,1.09.41-.84-.34-.04,0,.17.1.59.28,1.16.6,1.71.93.62.37,1.21.77,1.79,1.2-.14-.11-.64-.53.02.02.4.34.8.68,1.18,1.04.48.45.94.91,1.38,1.4.18.19.35.39.52.59.07.08.84,1.11.28.33.39.55.77,1.12,1.11,1.71.13.24.25.49.38.72.22.48.24.49.04.04.1.25.19.5.27.76.08.25.15.51.22.77.05.22.12,1.39.09.35,0,.31-.02.66.01.96.07.6.32-.89-.02.14,0-.01-.4,1.18-.14.57s-.29.48-.29.48c-.48.97.56-.48-.2.29-.27.27-.52.55-.8.81-.24.22-.49.41-.73.63-.25.2-.2.16.15-.11-.21.15-.41.3-.63.45-.71.5-1.44.98-2.18,1.46-1.56,1.01-3.14,1.97-4.75,2.89-3.23,1.83-6.56,3.46-9.97,4.92-2.18.92-2.82,4.29-1.61,6.16,1.46,2.26,3.83,2.6,6.16,1.61,6.57-2.79,13.13-6.22,18.75-10.64,2.99-2.35,5.04-5.56,5.26-9.43.2-3.57-1.29-7.19-3.35-10.04-3.92-5.42-9.84-9.79-16.54-10.9-3.97-.65-7.97-.37-11.97-.24-3.78.12-7.57.24-11.35.37-4.18.14-8.36.34-12.54.36-2.02,0-4.05-.04-6.06-.23-.31-.03-.62-.06-.92-.1.77.09-.94-.15-1.1-.18-1.07-.19-2.12-.45-3.16-.74-2.26-.64-5,.79-5.54,3.14s.72,4.85,3.14,5.54h0Z"/>
      </g>
      <path class="cls-6" d="m66.36,2.11l124.19,10.37c3.3.28,5.8,3.08,5.71,6.38l-4.06,142.99c-.11,3.93-3.79,6.77-7.62,5.89l-120.42-27.66c-2.83-.65-4.84-3.18-4.83-6.08l.29-125.71c0-3.64,3.12-6.49,6.75-6.19Z"/>
      <path class="cls-3" d="m69.53,129.8l106.24,24.4c2.16.5,4.25-1.09,4.35-3.31l5.33-118.98c.11-2.44-1.71-4.53-4.14-4.76l-110.28-10.29c-2.37-.22-4.41,1.64-4.41,4.02v105.26c0,1.75,1.21,3.26,2.91,3.65Z"/>
      <path class="cls-6" d="m173.85,179.4s6.69,3.87,7.33,9.68c.24,2.23.4,4.33.49,6.05.15,2.83-1.11,5.55-3.36,7.24-9.6,7.18-35.95,26.59-41.4,27.38-4.91.71-113.83-37.51-133.57-44.43-1.22-.43-1.39-2.1-.29-2.78,9.53-5.83,40.95-24.76,51.63-27.64,1.77-.48,3.5-1.12,5.18-1.86,2.28-1,5.93-1.9,10.41-.46.84.27,1.68.53,2.53.75l101.05,26.08Z"/>
      <path class="cls-3" d="m97.09,147.55l-.63,9.84s-11.43,4.13-8.89,7.93l53.01,13.97s2.47-9.73,7.96-5.57c.46.34,1.1.3,1.48-.12l2.15-2.31c.65-.7.65-1.78,0-2.5-1.23-1.37-2.57-3.81.14-6.32l3.17-1.9-58.4-13.01Z"/>
      <path class="cls-3" d="m225.95,198.65s-38.89-9.06-42.86,24.72c-.36,3.04.89,6.05,3.33,7.91,5.54,4.22,17.61,10.12,37.72,4.02.98-.3,1.93-.72,2.81-1.24,5.35-3.18,25.13-15.4,23.76-21.45-1.59-6.98-24.76-13.97-24.76-13.97Z"/>
      <path class="cls-7" d="m226.84,199.75c4.72,2.22,14.77,7.58,17.48,14.04.03.06.07.12.14.15.58.33,3.67,1.89,6.25-.69,2.77-2.77-18.58-13.87-19.93-14.57-.05-.02-.09-.03-.15-.03h-3.54c-.62,0-.81.84-.25,1.1Z"/>
      <path class="cls-1" d="m146.45,218.17c1.93,0,1.93-3,0-3s-1.93,3,0,3h0Z"/>
      <path class="cls-7" d="m51.47,159.82l-36.93,19.31c-1.58.83-1.38,3.15.31,3.7l115.43,37.26c.59.19,1.23.1,1.74-.24l36.2-24.32c1.42-.96,1.07-3.14-.58-3.61l-114.7-32.25c-.49-.14-1.02-.08-1.48.15Z"/>
      <path class="cls-6" d="m49.8,161.23l-3.81,2.6c-.57.39-.46,1.26.19,1.48l4.57,1.62c.27.09.56.05.79-.12l4.95-3.76c.54-.41.4-1.26-.25-1.47l-2.69-.88c-1.27-.41-2.66-.22-3.76.53Z"/>
      <path class="cls-6" d="m56.96,163.55l-3.65,2.82c-.54.42-.38,1.28.28,1.47l4.66,1.34c.27.08.56.01.78-.17l4.72-4.05c.51-.44.32-1.28-.33-1.45l-2.73-.72c-1.29-.34-2.67-.06-3.72.75Z"/>
      <path class="cls-6" d="m64.55,166.1l-3.63,2.85c-.54.42-.37,1.28.29,1.47l4.67,1.31c.27.08.56.01.78-.18l4.69-4.09c.51-.44.31-1.28-.35-1.45l-2.74-.69c-1.29-.33-2.67-.04-3.72.79Z"/>
      <path class="cls-6" d="m72.09,168.37l-3.54,2.96c-.53.44-.33,1.29.34,1.46l4.71,1.15c.27.07.56,0,.77-.2l4.55-4.24c.5-.46.27-1.29-.39-1.43l-2.76-.6c-1.3-.29-2.67.05-3.69.91Z"/>
      <path class="cls-6" d="m79.71,170.6l-3.54,2.96c-.53.44-.33,1.29.34,1.46l4.71,1.15c.27.07.56,0,.77-.2l4.55-4.24c.5-.46.27-1.29-.39-1.43l-2.76-.6c-1.3-.29-2.67.05-3.69.91Z"/>
      <path class="cls-6" d="m87.64,172.82l-3.54,2.96c-.53.44-.33,1.29.34,1.46l4.71,1.15c.27.07.56,0,.77-.2l4.55-4.24c.5-.46.27-1.29-.39-1.43l-2.76-.6c-1.3-.29-2.67.05-3.69.91Z"/>
      <path class="cls-6" d="m95.58,175.04l-3.54,2.96c-.53.44-.33,1.29.34,1.46l4.71,1.15c.27.07.56,0,.77-.2l4.55-4.24c.5-.46.27-1.29-.39-1.43l-2.76-.6c-1.3-.29-2.67.05-3.69.91Z"/>
      <path class="cls-6" d="m103.51,177.26l-3.54,2.96c-.53.44-.33,1.29.34,1.46l4.71,1.15c.27.07.56,0,.77-.2l4.55-4.24c.5-.46.27-1.29-.39-1.43l-2.76-.6c-1.3-.29-2.67.05-3.69.91Z"/>
      <path class="cls-6" d="m111.45,179.48l-3.54,2.96c-.53.44-.33,1.29.34,1.46l4.71,1.15c.27.07.56,0,.77-.2l4.55-4.24c.5-.46.27-1.29-.39-1.43l-2.76-.6c-1.3-.29-2.67.05-3.69.91Z"/>
      <path class="cls-6" d="m119.38,181.71l-3.54,2.96c-.53.44-.33,1.29.34,1.46l4.71,1.15c.27.07.56,0,.77-.2l4.55-4.24c.5-.46.27-1.29-.39-1.43l-2.76-.6c-1.3-.29-2.67.05-3.69.91Z"/>
      <path class="cls-6" d="m127.64,183.93l-3.54,2.96c-.53.44-.33,1.29.34,1.46l4.71,1.15c.27.07.56,0,.77-.2l4.55-4.24c.5-.46.27-1.29-.39-1.43l-2.76-.6c-1.3-.29-2.67.05-3.69.91Z"/>
      <path class="cls-6" d="m135.25,186.15l-3.54,2.96c-.53.44-.33,1.29.34,1.46l4.71,1.15c.27.07.56,0,.77-.2l4.55-4.24c.5-.46.27-1.29-.39-1.43l-2.76-.6c-1.3-.29-2.67.05-3.69.91Z"/>
      <path class="cls-6" d="m142.55,188.05l-3.54,2.96c-.53.44-.33,1.29.34,1.46l4.71,1.15c.27.07.56,0,.77-.2l4.55-4.24c.5-.46.27-1.29-.39-1.43l-2.76-.6c-1.3-.29-2.67.05-3.69.91Z"/>
      <path class="cls-6" d="m136.52,194.72l-3.54,2.96c-.53.44-.33,1.29.34,1.46l4.71,1.15c.27.07.56,0,.77-.2l4.55-4.24c.5-.46.27-1.29-.39-1.43l-2.76-.6c-1.3-.29-2.67.05-3.69.91Z"/>
      <path class="cls-6" d="m129.22,201.7l-3.54,2.96c-.53.44-.33,1.29.34,1.46l4.71,1.15c.27.07.56,0,.77-.2l4.55-4.24c.5-.46.27-1.29-.39-1.43l-2.76-.6c-1.3-.29-2.67.05-3.69.91Z"/>
      <path class="cls-6" d="m113.67,197.26l-3.54,2.96c-.53.44-.33,1.29.34,1.46l4.71,1.15c.27.07.56,0,.77-.2l4.55-4.24c.5-.46.27-1.29-.39-1.43l-2.76-.6c-1.3-.29-2.67.05-3.69.91Z"/>
      <path class="cls-6" d="m121.61,199.48l-3.54,2.96c-.53.44-.33,1.29.34,1.46l4.71,1.15c.27.07.56,0,.77-.2l4.55-4.24c.5-.46.27-1.29-.39-1.43l-2.76-.6c-1.3-.29-2.67.05-3.69.91Z"/>
      <path class="cls-6" d="m106.37,195.04l-3.54,2.96c-.53.44-.33,1.29.34,1.46l4.71,1.15c.27.07.56,0,.77-.2l4.55-4.24c.5-.46.27-1.29-.39-1.43l-2.76-.6c-1.3-.29-2.67.05-3.69.91Z"/>
      <path class="cls-6" d="m98.75,192.81l-3.54,2.96c-.53.44-.33,1.29.34,1.46l4.71,1.15c.27.07.56,0,.77-.2l4.55-4.24c.5-.46.27-1.29-.39-1.43l-2.76-.6c-1.3-.29-2.67.05-3.69.91Z"/>
      <path class="cls-6" d="m91.45,190.27l-3.54,2.96c-.53.44-.33,1.29.34,1.46l4.71,1.15c.27.07.56,0,.77-.2l4.55-4.24c.5-.46.27-1.29-.39-1.43l-2.76-.6c-1.3-.29-2.67.05-3.69.91Z"/>
      <path class="cls-6" d="m82.88,188.05l-3.54,2.96c-.53.44-.33,1.29.34,1.46l4.71,1.15c.27.07.56,0,.77-.2l4.55-4.24c.5-.46.27-1.29-.39-1.43l-2.76-.6c-1.3-.29-2.67.05-3.69.91Z"/>
      <path class="cls-6" d="m74.95,185.83l-3.54,2.96c-.53.44-.33,1.29.34,1.46l4.71,1.15c.27.07.56,0,.77-.2l4.55-4.24c.5-.46.27-1.29-.39-1.43l-2.76-.6c-1.3-.29-2.67.05-3.69.91Z"/>
      <path class="cls-6" d="m67.01,183.29l-3.54,2.96c-.53.44-.33,1.29.34,1.46l4.71,1.15c.27.07.56,0,.77-.2l4.55-4.24c.5-.46.27-1.29-.39-1.43l-2.76-.6c-1.3-.29-2.67.05-3.69.91Z"/>
      <path class="cls-6" d="m59.08,181.39l-3.54,2.96c-.53.44-.33,1.29.34,1.46l4.71,1.15c.27.07.56,0,.77-.2l4.55-4.24c.5-.46.27-1.29-.39-1.43l-2.76-.6c-1.3-.29-2.67.05-3.69.91Z"/>
      <path class="cls-6" d="m51.14,179.17l-3.54,2.96c-.53.44-.33,1.29.34,1.46l4.71,1.15c.27.07.56,0,.77-.2l4.55-4.24c.5-.46.27-1.29-.39-1.43l-2.76-.6c-1.3-.29-2.67.05-3.69.91Z"/>
      <path class="cls-6" d="m43.84,176.63l-3.54,2.96c-.53.44-.33,1.29.34,1.46l4.71,1.15c.27.07.56,0,.77-.2l4.55-4.24c.5-.46.27-1.29-.39-1.43l-2.76-.6c-1.3-.29-2.67.05-3.69.91Z"/>
      <path class="cls-6" d="m35.95,173.55l-3.92,2.43c-.58.36-.51,1.23.13,1.49l4.5,1.81c.26.11.56.07.79-.09l5.11-3.55c.56-.39.45-1.24-.18-1.47l-2.65-.99c-1.25-.47-2.65-.33-3.78.37Z"/>
      <path class="cls-6" d="m23.88,177.68l-3.92,2.43c-.58.36-.51,1.23.13,1.49l4.5,1.81c.26.11.56.07.79-.09l5.11-3.55c.56-.39.45-1.24-.18-1.47l-2.65-.99c-1.25-.47-2.65-.33-3.78.37Z"/>
      <path class="cls-6" d="m31.82,181.17l-3.92,2.43c-.58.36-.51,1.23.13,1.49l4.5,1.81c.26.11.56.07.79-.09l5.11-3.55c.56-.39.45-1.24-.18-1.47l-2.65-.99c-1.25-.47-2.65-.33-3.78.37Z"/>
      <path class="cls-6" d="m39.44,183.71l-3.92,2.43c-.58.36-.51,1.23.13,1.49l4.5,1.81c.26.11.56.07.79-.09l5.11-3.55c.56-.39.45-1.24-.18-1.47l-2.65-.99c-1.25-.47-2.65-.33-3.78.37Z"/>
      <path class="cls-6" d="m103.96,204.47l-3.68,2.78c-.55.41-.39,1.28.26,1.47l4.65,1.39c.27.08.56.02.78-.16l4.77-4c.52-.44.33-1.27-.32-1.45l-2.73-.75c-1.29-.35-2.66-.09-3.73.72Z"/>
      <path class="cls-6" d="m112.84,207.01l-3.68,2.78c-.55.41-.39,1.28.26,1.47l4.65,1.39c.27.08.56.02.78-.16l4.77-4c.52-.44.33-1.27-.32-1.45l-2.73-.75c-1.29-.35-2.66-.09-3.73.72Z"/>
      <path class="cls-6" d="m130.3,212.73l-3.68,2.78c-.55.41-.39,1.28.26,1.47l4.65,1.39c.27.08.56.02.78-.16l4.77-4c.52-.44.33-1.27-.32-1.45l-2.73-.75c-1.29-.35-2.66-.09-3.73.72Z"/>
      <path class="cls-6" d="m139.61,206.93l4.43,1.3c.66.19.82,1.05.27,1.47l-3.86,2.95c-.22.17-.52.22-.79.13l-5.87-2.06c-.64-.22-.76-1.07-.22-1.47l2.29-1.66c1.08-.78,2.46-1.02,3.74-.65Z"/>
      <path class="cls-6" d="m121.1,209.87l-3.68,2.78c-.55.41-.39,1.28.26,1.47l4.65,1.39c.27.08.56.02.78-.16l4.77-4c.52-.44.33-1.27-.32-1.45l-2.73-.75c-1.29-.35-2.66-.09-3.73.72Z"/>
      <path class="cls-6" d="m128.91,192.18l-3.54,2.96c-.53.44-.33,1.29.34,1.46l4.71,1.15c.27.07.56,0,.77-.2l4.55-4.24c.5-.46.27-1.29-.39-1.43l-2.76-.6c-1.3-.29-2.67.05-3.69.91Z"/>
      <path class="cls-6" d="m120.97,190.27l-3.54,2.96c-.53.44-.33,1.29.34,1.46l4.71,1.15c.27.07.56,0,.77-.2l4.55-4.24c.5-.46.27-1.29-.39-1.43l-2.76-.6c-1.3-.29-2.67.05-3.69.91Z"/>
      <path class="cls-6" d="m113.67,188.05l-3.54,2.96c-.53.44-.33,1.29.34,1.46l4.71,1.15c.27.07.56,0,.77-.2l4.55-4.24c.5-.46.27-1.29-.39-1.43l-2.76-.6c-1.3-.29-2.67.05-3.69.91Z"/>
      <path class="cls-6" d="m105.74,186.15l-3.54,2.96c-.53.44-.33,1.29.34,1.46l4.71,1.15c.27.07.56,0,.77-.2l4.55-4.24c.5-.46.27-1.29-.39-1.43l-2.76-.6c-1.3-.29-2.67.05-3.69.91Z"/>
      <path class="cls-6" d="m97.48,183.61l-3.54,2.96c-.53.44-.33,1.29.34,1.46l4.71,1.15c.27.07.56,0,.77-.2l4.55-4.24c.5-.46.27-1.29-.39-1.43l-2.76-.6c-1.3-.29-2.67.05-3.69.91Z"/>
      <path class="cls-6" d="m89.23,181.39l-3.54,2.96c-.53.44-.33,1.29.34,1.46l4.71,1.15c.27.07.56,0,.77-.2l4.55-4.24c.5-.46.27-1.29-.39-1.43l-2.76-.6c-1.3-.29-2.67.05-3.69.91Z"/>
      <path class="cls-6" d="m81.3,179.17l-3.54,2.96c-.53.44-.33,1.29.34,1.46l4.71,1.15c.27.07.56,0,.77-.2l4.55-4.24c.5-.46.27-1.29-.39-1.43l-2.76-.6c-1.3-.29-2.67.05-3.69.91Z"/>
      <path class="cls-6" d="m73.36,176.94l-3.54,2.96c-.53.44-.33,1.29.34,1.46l4.71,1.15c.27.07.56,0,.77-.2l4.55-4.24c.5-.46.27-1.29-.39-1.43l-2.76-.6c-1.3-.29-2.67.05-3.69.91Z"/>
      <path class="cls-6" d="m65.74,174.72l-3.54,2.96c-.53.44-.33,1.29.34,1.46l4.71,1.15c.27.07.56,0,.77-.2l4.55-4.24c.5-.46.27-1.29-.39-1.43l-2.76-.6c-1.3-.29-2.67.05-3.69.91Z"/>
      <path class="cls-6" d="m57.81,172.18l-3.54,2.96c-.53.44-.33,1.29.34,1.46l4.71,1.15c.27.07.56,0,.77-.2l4.55-4.24c.5-.46.27-1.29-.39-1.43l-2.76-.6c-1.3-.29-2.67.05-3.69.91Z"/>
      <path class="cls-6" d="m50.19,169.64l-3.54,2.96c-.53.44-.33,1.29.34,1.46l4.71,1.15c.27.07.56,0,.77-.2l4.55-4.24c.5-.46.27-1.29-.39-1.43l-2.76-.6c-1.3-.29-2.67.05-3.69.91Z"/>
      <path class="cls-6" d="m42.75,166.99l-3.74,2.7c-.56.4-.42,1.27.23,1.48l4.62,1.49c.27.09.56.03.78-.14l4.85-3.9c.53-.42.36-1.27-.29-1.46l-2.71-.8c-1.28-.38-2.66-.15-3.74.63Z"/>
      <path class="cls-6" d="m49.1,185.91l52.72,15.54c.78.23,1.01,1.23.4,1.77l-4.52,4.07c-.27.25-.66.33-1.01.22l-53.28-16.86c-.87-.28-.99-1.47-.18-1.9l5.09-2.76c.24-.13.53-.16.79-.08Z"/>
      <path class="cls-6" d="m142.12,200.3l-2.55,2.73c-.65.7-.37,1.83.53,2.14l7.63,2.62c.38.13.81.08,1.15-.14l11.05-7.19c.88-.57.77-1.9-.2-2.31l-5.85-2.51c-.47-.2-1.02-.11-1.4.23l-4.91,4.39c-.31.28-.74.39-1.15.31l-3.06-.66c-.45-.1-.92.05-1.24.39Z"/>
      <path class="cls-6" d="m154.35,189.48l-4.2,2.43c-.61.35-.55,1.25.1,1.51l11.95,4.89c.26.11.56.08.8-.08l4.3-2.94c.57-.39.46-1.26-.19-1.49l-12.05-4.38c-.24-.09-.5-.06-.71.06Z"/>
    </g>
    <path class="cls-5" d="m166.14,95.22l-13,5.97c-3.45,1.59-5.9,4.77-6.55,8.51l-2.45,14.1c-1.64,9.42-13.37,12.88-19.85,5.85l-9.7-10.52c-2.57-2.79-6.36-4.14-10.12-3.6l-14.16,2.03c-9.47,1.35-16.38-8.74-11.7-17.07l7.01-12.47c1.86-3.31,1.97-7.33.3-10.74l-6.3-12.84c-4.21-8.59,3.25-18.28,12.62-16.4l14.03,2.81c3.72.75,7.58-.39,10.3-3.03l10.27-9.96c6.86-6.66,18.39-2.56,19.5,6.94l1.66,14.21c.44,3.77,2.71,7.09,6.07,8.86l12.65,6.68c8.46,4.47,8.12,16.69-.57,20.69Z"/>
    <path class="cls-6" d="m157.61,92.76l-10.3,4.73c-2.73,1.26-4.67,3.78-5.19,6.74l-1.94,11.17c-1.3,7.46-10.59,10.2-15.73,4.63l-7.68-8.33c-2.04-2.21-5.04-3.28-8.01-2.85l-11.22,1.61c-7.5,1.07-12.97-6.92-9.26-13.52l5.55-9.88c1.47-2.62,1.56-5.8.24-8.5l-4.99-10.17c-3.34-6.8,2.57-14.48,10-12.99l11.11,2.22c2.95.59,6-.31,8.16-2.4l8.13-7.89c5.44-5.28,14.56-2.03,15.44,5.5l1.32,11.26c.35,2.99,2.15,5.61,4.81,7.02l10.02,5.3c6.7,3.54,6.43,13.22-.45,16.39Z"/>
    <path class="cls-3" d="m148.84,90.87l-7.91,3.64c-2.1.97-3.59,2.9-3.99,5.18l-1.49,8.58c-1,5.74-8.14,7.84-12.09,3.56l-5.9-6.4c-1.57-1.7-3.87-2.52-6.16-2.19l-8.62,1.23c-5.76.82-9.97-5.32-7.12-10.4l4.27-7.59c1.13-2.02,1.2-4.46.18-6.54l-3.84-7.82c-2.57-5.23,1.98-11.13,7.69-9.98l8.54,1.71c2.27.45,4.61-.24,6.27-1.85l6.25-6.07c4.18-4.06,11.19-1.56,11.87,4.22l1.01,8.65c.27,2.3,1.65,4.31,3.7,5.39l7.7,4.07c5.15,2.72,4.94,10.16-.35,12.6Z"/>
    <path class="cls-7" d="m142.14,88.43l-5.8,2.67c-1.54.71-2.63,2.13-2.92,3.8l-1.09,6.29c-.73,4.21-5.97,5.75-8.86,2.61l-4.33-4.7c-1.15-1.25-2.84-1.85-4.52-1.61l-6.32.9c-4.23.6-7.31-3.9-5.22-7.62l3.13-5.57c.83-1.48.88-3.27.13-4.79l-2.81-5.73c-1.88-3.83,1.45-8.16,5.64-7.32l6.26,1.25c1.66.33,3.38-.17,4.6-1.35l4.58-4.45c3.06-2.97,8.21-1.14,8.71,3.1l.74,6.34c.2,1.68,1.21,3.16,2.71,3.96l5.65,2.98c3.78,2,3.62,7.45-.26,9.24Z"/>
  </g>
</svg>