<?xml version="1.0" encoding="UTF-8"?>
<svg id="Layer_4" data-name="Layer 4" xmlns="http://www.w3.org/2000/svg" width="68" height="69" viewBox="0 0 68 69">
  <defs>
    <style>
      .cls-1 {
        fill: #319b72;
        stroke: #0d261c;
        stroke-miterlimit: 10;
        stroke-width: 2px;
      }

      .cls-2 {
        isolation: isolate;
      }
    </style>
  </defs>
  <g id="Layer_18" data-name="Layer 18" class="cls-2">
    <path id="ic_arrow_upward_24px" data-name="ic arrow upward 24px" class="cls-1" d="m1.72,35.43l3.29,3.29c.73.73,1.9.73,2.63,0l18.98-18.95c1.17-1.17,3.18-.34,3.18,1.32v44.76c0,1.03.83,1.86,1.86,1.86h4.68c1.03,0,1.86-.83,1.86-1.86V21.1c0-1.66,2.01-2.49,3.18-1.31l18.94,18.97c.73.73,1.91.73,2.63,0l3.33-3.33c.73-.73.73-1.91,0-2.63L35.32,1.83c-.73-.73-1.91-.73-2.63,0L1.72,32.8c-.73.73-.73,1.91,0,2.63Z"/>
  </g>
</svg>