<?xml version="1.0" encoding="utf-8"?>
<!-- Generator: Adobe Illustrator 27.5.0, SVG Export Plug-In . SVG Version: 6.00 Build 0)  -->
<svg version="1.1" id="Layer_4" xmlns="http://www.w3.org/2000/svg" xmlns:xlink="http://www.w3.org/1999/xlink" x="0px" y="0px"
	 viewBox="0 0 68 69" style="enable-background:new 0 0 68 69;" xml:space="preserve">
<style type="text/css">
	.st0{enable-background:new    ;}
	.st1{fill:#319B72;stroke:#0D261C;stroke-width:2;stroke-miterlimit:10;}
</style>
<g id="Layer_18" class="st0">
	<path id="ic_arrow_upward_24px" class="st1" d="M1.7,35.4L5,38.7c0.7,0.7,1.9,0.7,2.6,0l19-19c1.2-1.2,3.2-0.3,3.2,1.3v44.8
		c0,1,0.8,1.9,1.9,1.9h4.7c1,0,1.9-0.8,1.9-1.9V21.1c0-1.7,2-2.5,3.2-1.3l18.9,19c0.7,0.7,1.9,0.7,2.6,0l3.3-3.3
		c0.7-0.7,0.7-1.9,0-2.6l-31-31c-0.7-0.7-1.9-0.7-2.6,0l-31,31C1,33.5,1,34.7,1.7,35.4z"/>
</g>
</svg>
