<?xml version="1.0" encoding="UTF-8"?>
<svg id="Layer_15" data-name="Layer 15" xmlns="http://www.w3.org/2000/svg" width="190" height="215" viewBox="0 0 190 215">
  <defs>
    <style>
      .cls-1 {
        fill: #267355;
        stroke: #bad3b6;
        stroke-miterlimit: 10;
        stroke-width: 4px;
      }
    </style>
  </defs>
  <path class="cls-1" d="m12.89,7.75l116.96-4.47c4.16-.16,7.71,3.77,7.94,8.81l1.57,33.16c.25,5.28-3.23,9.64-7.6,9.52l-33.09-.88c-4.33-.12-7.8,4.18-7.6,9.42l3.27,86.55c.19,5.02-2.99,9.22-7.14,9.41l-30.64,1.45c-4.28.2-7.91-3.93-8.01-9.12l-1.67-87.57c-.1-5.19-3.73-9.32-8.01-9.12l-21.28,1.01c-3.89.18-7.31-3.23-7.92-7.89l-3.89-29.85c-.7-5.4,2.61-10.26,7.11-10.43Z"/>
  <path class="cls-1" d="m93.9,111.86l13.78.67c2.29.11,4.08-1.76,4.07-4.05,0-3.68,3.49-8.28,21.51-7.54,27.73,1.13,14.6,24.98,12.93,27.81-.1.17-.19.35-.26.54-.79,2.04-6.89,15.9-34.23,36-23,16.91-23.36,35.17-22.37,42.52.26,1.92,1.92,3.34,3.86,3.36l80.38.56c2.17.02,3.94-1.73,3.95-3.9l.07-10.18c.01-2.15-1.71-3.92-3.86-3.95l-47.8-.79c-.18,0-.36,0-.54.03-2.15.27-17.1,1,35.51-39.79,56.07-43.47-2.59-82.77-30.21-76.28-.17.04-.33.07-.5.08-2.96.26-32,3.43-39.86,29.86-.73,2.45,1.02,4.94,3.57,5.07Z"/>
</svg>