<?xml version="1.0" encoding="UTF-8"?>
<svg id="Layer_16" data-name="Layer 16" xmlns="http://www.w3.org/2000/svg" width="185" height="200" viewBox="0 0 185 200">
  <defs>
    <style>
      .cls-1 {
        fill: #267355;
        stroke: #bad3b6;
        stroke-miterlimit: 10;
        stroke-width: 4px;
      }
    </style>
  </defs>
  <path class="cls-1" d="m11.61,7.8l116.96-4.47c4.16-.16,7.71,3.77,7.94,8.81l1.57,33.16c.25,5.28-3.23,9.64-7.6,9.52l-33.09-.88c-4.33-.12-7.8,4.18-7.6,9.42l3.27,86.55c.19,5.02-2.99,9.22-7.14,9.41l-30.64,1.45c-4.28.2-7.91-3.93-8.01-9.12l-1.67-87.57c-.1-5.19-3.73-9.32-8.01-9.12l-21.28,1.01c-3.89.18-7.31-3.23-7.92-7.89l-3.89-29.85c-.7-5.4,2.61-10.26,7.11-10.43Z"/>
  <path class="cls-1" d="m83.81,69.3l2.04,14.89,49.38-3c1.79-.11,2.62,2.17,1.19,3.24l-34.4,25.66c-.49.37-.76.96-.72,1.57l.91,13.01c.07,1.05,1.03,1.82,2.07,1.65,7.16-1.13,31.91-4.62,35.85.51.58.76-.89-.97-.21-.3,0,0,9.62,12.03,9.41,29.22-.18,14.43-11.93,26.17-26.35,26-.13,0-.26,0-.39,0-7.09-.15-13.51-4.23-16.88-10.47l-.89-1.64c-.34-.62-1-.99-1.71-.94l-12.81.89s3.41,27.33,21.44,27.07,49.06-3.24,56.37-10.95c11.09-11.69,22.1-31.73-1.55-67.42-.37-.56-.78-1.11-1.02-1.74-.28-.74-6.87-9.64-29.57-7.66-1.8.16-2.67-2.17-1.21-3.24l35.55-26.27c.53-.39.8-1.04.71-1.69l-1.75-13.15c-.13-.95-.97-1.63-1.92-1.56l-83.56,6.32Z"/>
</svg>