<?xml version="1.0" encoding="UTF-8"?>
<svg id="Layer_13" data-name="Layer 13" xmlns="http://www.w3.org/2000/svg" width="125" height="125" viewBox="0 0 125 125">
  <defs>
    <style>
      .cls-1 {
        fill: #1a4c39;
      }

      .cls-2 {
        fill: #267355;
      }
    </style>
  </defs>
  <path class="cls-1" d="m3.86,71.94l11.21-14.1c2.98-3.74,3.92-8.71,2.52-13.28l-5.26-17.23c-3.51-11.52,7.7-22.06,18.98-17.85l16.87,6.31c4.48,1.67,9.49,1.04,13.41-1.7l14.76-10.32c9.87-6.9,23.36.51,22.84,12.54l-.78,17.99c-.21,4.78,1.95,9.35,5.76,12.23l14.38,10.85c9.61,7.25,6.74,22.38-4.87,25.6l-17.36,4.81c-4.61,1.28-8.29,4.74-9.85,9.26l-5.87,17.03c-3.93,11.38-19.2,13.32-25.85,3.28l-9.94-15.02c-2.64-3.99-7.07-6.42-11.85-6.51l-18.01-.32c-12.04-.22-18.6-14.14-11.11-23.57h.02Z"/>
  <path class="cls-2" d="m16.73,68.34l8.62-10.83c2.29-2.88,3.01-6.69,1.94-10.21l-4.04-13.24c-2.7-8.85,5.92-16.96,14.59-13.72l12.97,4.85c3.44,1.29,7.3.8,10.31-1.31l11.34-7.93c7.58-5.3,17.96.39,17.56,9.64l-.6,13.83c-.16,3.67,1.5,7.19,4.43,9.4l11.05,8.34c7.39,5.57,5.18,17.2-3.74,19.67l-13.34,3.7c-3.54.98-6.37,3.64-7.57,7.12l-4.51,13.09c-3.02,8.75-14.76,10.24-19.87,2.52l-7.64-11.54c-2.03-3.06-5.44-4.93-9.11-5l-13.84-.25c-9.25-.17-14.3-10.87-8.54-18.11v-.02Z"/>
</svg>