<?xml version="1.0" encoding="UTF-8"?>
<svg id="Layer_2" data-name="Layer 2" xmlns="http://www.w3.org/2000/svg" width="74" height="90" viewBox="0 0 74 90">
  <defs>
    <style>
      .cls-1 {
        fill: #267355;
        isolation: isolate;
        stroke: #bad3b6;
        stroke-miterlimit: 10;
        stroke-width: 4px;
      }
    </style>
  </defs>
  <path class="cls-1" d="m69.34,86.6l-19.82-.03c-1.22,0-2.28-.98-2.57-2.37l-8.19-39.51c-.69-3.31-4.78-3.08-5.2.29l-4.92,40.1c-.19,1.55-1.34,2.69-2.68,2.66l-21.37-.54c-1.79-.05-3.03-2.11-2.45-4.09L25.1,4.36c.37-1.28,1.42-2.14,2.58-2.1l17.57.56c1.09.03,2.05.84,2.42,2.03l24.18,77.59c.63,2.02-.65,4.16-2.5,4.16Z"/>
</svg>